<svg id="Layer_1" data-name="Layer 1" xmlns="http://www.w3.org/2000/svg" xmlns:xlink="http://www.w3.org/1999/xlink" viewBox="0 0 1000 1000">
  <defs>
    <style>
      .help-links-1 {
        fill: none;
      }

      .help-links-2 {
        clip-path: url(#clip-path);
      }

      .help-links-3 {
        fill: url(#linear-gradient);
      }

      .help-links-4 {
        fill: url(#linear-gradient-2);
      }

      .help-links-5 {
        fill: url(#linear-gradient-3);
      }

      .help-links-6 {
        fill: #f60;
      }
    </style>
    <clipPath id="clip-path" transform="translate(0 0)">
      <path class="help-links-1" d="M853.55,146.45c-195.26-195.27-511.84-195.27-707.1,0s-195.27,511.84,0,707.1,511.84,195.27,707.1,0S1048.82,341.71,853.55,146.45Zm-548,548c-107.4-107.39-107.4-281.51,0-388.9s281.51-107.4,388.9,0,107.4,281.51,0,388.9S412.94,801.85,305.55,694.45Z"/>
    </clipPath>
    <linearGradient id="linear-gradient" y1="500" x2="1000" y2="500" gradientTransform="translate(500 -207.11) rotate(45)" gradientUnits="userSpaceOnUse">
      <stop offset="0" stop-color="#ff7900"/>
      <stop offset="1" stop-color="#f60"/>
    </linearGradient>
    <linearGradient id="linear-gradient-2" x1="853.55" y1="146.45" x2="146.45" y2="853.55" gradientTransform="translate(-207.11 500) rotate(-45)" gradientUnits="userSpaceOnUse">
      <stop offset="0" stop-color="#fcf8f5"/>
      <stop offset="1" stop-color="#e0dcda"/>
    </linearGradient>
    <linearGradient id="linear-gradient-3" x1="0" y1="500" x2="1000" y2="500" gradientTransform="translate(1000) rotate(90)" xlink:href="#linear-gradient-2"/>
  </defs>
  <title>icon</title>
  <g class="help-links-2">
    <circle class="help-links-3" cx="500" cy="500" r="500"/>
    <rect class="help-links-4" x="387.5" width="225" height="1000" transform="translate(500 -207.11) rotate(45)"/>
    <rect class="help-links-5" x="387.5" width="225" height="1000" transform="translate(-207.11 500) rotate(-45)"/>
  </g>
  <path d="M477.81,578.5l-20,20a39.82,39.82,0,0,1-56.3-56.32l56.3-56.29a39.51,39.51,0,0,1,66.14,16.87,19.47,19.47,0,0,0,4.24-2.8l26.16-26.16a78.29,78.29,0,0,0-12.09-16.06,79.61,79.61,0,0,0-112.6,0l-56.3,56.3a79.62,79.62,0,0,0,112.6,112.61L528.6,584A99.89,99.89,0,0,1,477.81,578.5Z" transform="translate(0 0)"/>
  <path class="help-links-6" d="M626.69,485.93l-56.32,56.29a78.7,78.7,0,0,1-124.69-16.05L471.85,500a18.92,18.92,0,0,1,4.25-2.82,39.09,39.09,0,0,0,9.83,16.89,39.83,39.83,0,0,0,56.29,0l56.3-56.29a39.81,39.81,0,0,0-56.3-56.31l-20,20A99.82,99.82,0,0,0,471.41,416l42.66-42.66A79.63,79.63,0,1,1,626.69,485.93Z" transform="translate(0 0)"/>
</svg>
