<svg id="Layer_1" data-name="Layer 1" xmlns="http://www.w3.org/2000/svg" viewBox="0 0 1000 1000">
  <title>icon-mask</title>
  <path d="M952.71,712.52c.28-.6.57-1.2.85-1.81.63-1.36,1.26-2.72,1.88-4.09q1.08-2.37,2.13-4.77c.41-.91.81-1.82,1.21-2.74q1.43-3.29,2.8-6.59l.54-1.3a498,498,0,0,0,37.58-174c0-.25,0-.5,0-.75.09-2.59.15-5.18.2-7.78,0-.35,0-.69,0-1,0-2.56.06-5.12.06-7.69v-.73c0-.25,0-.49,0-.74q0-3.81-.08-7.61l0-1.45A498.23,498.23,0,0,0,964.64,315c0-.08-.07-.17-.1-.26q-1.47-3.66-3-7.31c-.2-.46-.38-.93-.58-1.39q-1.43-3.39-2.9-6.76c-.51-1.16-1-2.31-1.55-3.47l-1.35-3a497.44,497.44,0,0,0-42.26-74.91l0,0A502.37,502.37,0,0,0,747.26,65.33l0,0Q730,55.44,712.12,47.1l-1-.49c-1.29-.61-2.6-1.2-3.9-1.8l-3.55-1.6L700.89,42c-2.3-1-4.62-2-6.94-3l-.21-.08A497.55,497.55,0,0,0,515.28.24l-.52,0Q507.41,0,500,0h-2.47c-2.29,0-4.56,0-6.83.07l-1.27,0A497.93,497.93,0,0,0,304.06,39.86L301.35,41l-3.58,1.57A497.21,497.21,0,0,0,235,75.88l0,0A502.33,502.33,0,0,0,75.92,235l0,0a496.69,496.69,0,0,0-31,57.82c-.39.84-.77,1.68-1.15,2.53-.54,1.2-1.08,2.41-1.61,3.62-1,2.16-1.89,4.32-2.8,6.49-.1.22-.19.44-.28.66-1,2.4-2,4.82-3,7.24-.1.23-.19.46-.28.69A497.94,497.94,0,0,0,.31,482.49c0,.23,0,.46,0,.69-.08,2.45-.15,4.89-.19,7.35l0,1.38C0,494.6,0,497.3,0,500s0,5.4.07,8.1l0,1.36c0,2.46.11,4.93.19,7.39,0,.21,0,.42,0,.64a497.78,497.78,0,0,0,35.5,168.65c0,.11.09.22.13.34,1.05,2.61,2.12,5.22,3.21,7.81a1,1,0,0,1,.07.15c1,2.26,1.93,4.51,2.91,6.75.48,1.09,1,2.17,1.45,3.26l1.38,3A497.14,497.14,0,0,0,75.88,765l0,0A502.43,502.43,0,0,0,235,924.08l0,0A496.35,496.35,0,0,0,292.4,955l3.23,1.46c1,.47,2.08.94,3.13,1.39q7.35,3.24,14.84,6.25l.19.08a498,498,0,0,0,168.83,35.52l.33,0q3.89.12,7.77.2l1.06,0c2.74,0,5.48.07,8.22.07s5.48,0,8.21-.07l1.08,0q3.87-.07,7.74-.2l.36,0a497.87,497.87,0,0,0,168.75-35.5l.34-.13c2.61-1,5.2-2.11,7.78-3.2l.19-.08c2.25-.95,4.5-1.93,6.73-2.91l3.28-1.46,3-1.36A496.09,496.09,0,0,0,765,924.12l0,0A502.33,502.33,0,0,0,924.08,765l0,0A497.27,497.27,0,0,0,952.71,712.52ZM894.87,235.91,767.24,363.54A301,301,0,0,0,596.67,215.92L728.89,83.7A477.28,477.28,0,0,1,894.87,235.91ZM597.47,757.2q-2.7,1-5.43,2l-.06,0a275.24,275.24,0,0,1-66.83,14.62l-.6.06c-1.83.16-3.67.31-5.51.43l-1.17.08c-1.71.11-3.42.21-5.13.29l-1.53,0c-1.64.07-3.28.13-4.93.17h-.87c-3.56.07-7.11.07-10.67,0h-1c-1.6,0-3.2-.1-4.8-.16l-1.67-.07c-1.66-.07-3.32-.17-5-.28l-1.35-.08c-1.78-.12-3.56-.27-5.33-.42l-.82-.08q-2.91-.26-5.82-.59h-.08a275.18,275.18,0,0,1-60.43-13.87l-.75-.26q-2.4-.86-4.79-1.76A275.81,275.81,0,0,1,242.64,597.06c-.59-1.56-1.16-3.11-1.72-4.68l-.3-.86a274.89,274.89,0,0,1-13.84-60.27l0-.27q-.31-2.82-.58-5.64l-.09-1c-.15-1.72-.28-3.43-.4-5.15,0-.52-.07-1-.1-1.58-.11-1.58-.2-3.17-.27-4.75,0-.68-.05-1.35-.08-2-.06-1.48-.12-3-.15-4.45,0-.66,0-1.33,0-2q-.08-4.42,0-8.85c0-.62,0-1.24,0-1.86,0-1.53.09-3.05.15-4.57,0-.63.05-1.27.08-1.9.07-1.62.17-3.24.27-4.86l.09-1.46c.13-1.76.26-3.52.42-5.28,0-.28,0-.57.08-.85q.26-2.91.59-5.81v-.06a275.64,275.64,0,0,1,14-60.69l.12-.33c.62-1.74,1.25-3.46,1.91-5.19a274.69,274.69,0,0,1,240-177.11l.92-.06c1.51-.08,3-.16,4.53-.22l1.74-.07c1.43,0,2.86-.1,4.29-.13l1.48,0c2.9,0,5.81,0,8.71,0h1.25c1.49,0,3,.08,4.48.14l1.48,0c1.59.07,3.19.15,4.78.24l.49,0a275.87,275.87,0,0,1,59.78,10.35l0,0a275.69,275.69,0,0,1,172.57,148c.66,1.43,1.33,2.86,2,4.3l.65,1.5c.75,1.71,1.49,3.42,2.2,5.15l.33.78c.81,2,1.6,4,2.37,6l0,.1a274.94,274.94,0,0,1,17.56,80.54c0,.23,0,.47,0,.71q.18,2.94.3,5.87c0,.46,0,.91,0,1.36.07,1.79.11,3.58.14,5.37,0,.58,0,1.17,0,1.76,0,1.71,0,3.43,0,5.14,0,.6,0,1.2,0,1.8,0,1.76-.07,3.52-.13,5.28,0,.48,0,1-.05,1.44-.08,1.91-.17,3.81-.28,5.72l-.06.84q-.2,3.18-.46,6.34l0,.13a275,275,0,0,1-14.5,67.43l0,.09c-.71,2-1.46,4.07-2.23,6.09A275.79,275.79,0,0,1,597.47,757.2ZM253.18,94.08,382.84,223.74a301.09,301.09,0,0,0-159.1,159.1L94.08,253.18A477.62,477.62,0,0,1,253.18,94.08ZM94.08,746.82,223.74,617.16a301.09,301.09,0,0,0,159.1,159.1L253.18,905.92A477.53,477.53,0,0,1,94.08,746.82Zm652.74,159.1L617.16,776.26a301.09,301.09,0,0,0,159.1-159.1L905.92,746.82A477.62,477.62,0,0,1,746.82,905.92Z"/>
</svg>
